<svg xmlns="http://www.w3.org/2000/svg" width="465mm" height="215mm" viewBox="0 0 465 215">
<rect x="0" y="0" width="120" height="100" rx="0" fill="none" stroke="#000000" stroke-width="0.2"/>
<circle cx="8" cy="8" r="1.6" fill="none" stroke="#000000" stroke-width="0.2"/>
<circle cx="112" cy="8" r="1.6" fill="none" stroke="#000000" stroke-width="0.2"/>
<circle cx="8" cy="92" r="1.6" fill="none" stroke="#000000" stroke-width="0.2"/>
<circle cx="112" cy="92" r="1.6" fill="none" stroke="#000000" stroke-width="0.2"/>
<circle cx="60" cy="54" r="42.0" fill="none" stroke="#ff0000" stroke-width="0.2"/>
<circle cx="38" cy="32" r="8.0" fill="none" stroke="#000000" stroke-width="0.2"/>
<circle cx="82" cy="32" r="8.0" fill="none" stroke="#000000" stroke-width="0.2"/>
<path d="M 28 20 Q 38 14 48 20" fill="none" stroke="#ff0000" stroke-width="0.2"/>
<path d="M 72 20 Q 82 14 92 20" fill="none" stroke="#ff0000" stroke-width="0.2"/>
<circle cx="60" cy="56" r="11.5" fill="none" stroke="#000000" stroke-width="0.2"/>
<circle cx="27" cy="58" r="5.0" fill="none" stroke="#ff0000" stroke-width="0.2"/>
<circle cx="93" cy="58" r="5.0" fill="none" stroke="#ff0000" stroke-width="0.2"/>
<path d="M 40 78 Q 60 86 80 78 Q 60 96 40 78 Z" fill="none" stroke="#000000" stroke-width="0.2"/>
<text x="24" y="10" font-family="sans-serif" font-size="4" fill="#ff0000">FRONTAL - decora la cara (vermell = gravat)</text>
<rect x="125" y="0" width="120" height="100" rx="0" fill="none" stroke="#000000" stroke-width="0.2"/>
<circle cx="133" cy="8" r="1.6" fill="none" stroke="#000000" stroke-width="0.2"/>
<circle cx="237" cy="8" r="1.6" fill="none" stroke="#000000" stroke-width="0.2"/>
<circle cx="133" cy="92" r="1.6" fill="none" stroke="#000000" stroke-width="0.2"/>
<circle cx="237" cy="92" r="1.6" fill="none" stroke="#000000" stroke-width="0.2"/>
<rect x="170" y="80" width="14" height="9" rx="0" fill="none" stroke="#000000" stroke-width="0.2"/>
<text x="129" y="12" font-family="sans-serif" font-size="5" fill="#ff0000">DARRERE</text>
<rect x="250" y="0" width="100" height="100" rx="0" fill="none" stroke="#000000" stroke-width="0.2"/>
<circle cx="258" cy="8" r="1.6" fill="none" stroke="#000000" stroke-width="0.2"/>
<circle cx="342" cy="8" r="1.6" fill="none" stroke="#000000" stroke-width="0.2"/>
<circle cx="258" cy="92" r="1.6" fill="none" stroke="#000000" stroke-width="0.2"/>
<circle cx="342" cy="92" r="1.6" fill="none" stroke="#000000" stroke-width="0.2"/>
<text x="254" y="12" font-family="sans-serif" font-size="5" fill="#ff0000">LATERAL A</text>
<rect x="355" y="0" width="100" height="100" rx="0" fill="none" stroke="#000000" stroke-width="0.2"/>
<circle cx="363" cy="8" r="1.6" fill="none" stroke="#000000" stroke-width="0.2"/>
<circle cx="447" cy="8" r="1.6" fill="none" stroke="#000000" stroke-width="0.2"/>
<circle cx="363" cy="92" r="1.6" fill="none" stroke="#000000" stroke-width="0.2"/>
<circle cx="447" cy="92" r="1.6" fill="none" stroke="#000000" stroke-width="0.2"/>
<text x="359" y="12" font-family="sans-serif" font-size="5" fill="#ff0000">LATERAL B</text>
<rect x="0" y="105" width="120" height="106" rx="0" fill="none" stroke="#000000" stroke-width="0.2"/>
<circle cx="8" cy="113" r="1.6" fill="none" stroke="#000000" stroke-width="0.2"/>
<circle cx="112" cy="113" r="1.6" fill="none" stroke="#000000" stroke-width="0.2"/>
<circle cx="8" cy="203" r="1.6" fill="none" stroke="#000000" stroke-width="0.2"/>
<circle cx="112" cy="203" r="1.6" fill="none" stroke="#000000" stroke-width="0.2"/>
<text x="4" y="117" font-family="sans-serif" font-size="5" fill="#ff0000">BASE</text>
<rect x="125" y="105" width="120" height="106" rx="0" fill="none" stroke="#000000" stroke-width="0.2"/>
<circle cx="133" cy="113" r="1.6" fill="none" stroke="#000000" stroke-width="0.2"/>
<circle cx="237" cy="113" r="1.6" fill="none" stroke="#000000" stroke-width="0.2"/>
<circle cx="133" cy="203" r="1.6" fill="none" stroke="#000000" stroke-width="0.2"/>
<circle cx="237" cy="203" r="1.6" fill="none" stroke="#000000" stroke-width="0.2"/>
<rect x="175" y="150" width="16" height="10" rx="0" fill="none" stroke="#000000" stroke-width="0.2"/>
<rect x="150" y="128" width="10.4" height="3.4" rx="0" fill="none" stroke="#000000" stroke-width="0.2"/>
<rect x="205" y="128" width="10.4" height="3.4" rx="0" fill="none" stroke="#000000" stroke-width="0.2"/>
<text x="129" y="117" font-family="sans-serif" font-size="5" fill="#ff0000">TAPA</text>
<path d="M 277.5 159.44 L 277.5 174.44 L 287.5 174.44 L 287.5 159.44 A 22.5 22.5 0 1 0 277.5 159.44 Z" fill="none" stroke="#000000" stroke-width="0.2"/>
<circle cx="282.5" cy="137.5" r="15.0" fill="none" stroke="#ff0000" stroke-width="0.2"/>
<path d="M 370 160 Q 378 120 392.5 115 Q 407 120 415 160 L 397.5 160 L 397.5 175 L 387.5 175 L 387.5 160 Z" fill="none" stroke="#000000" stroke-width="0.2"/>
<path d="M 379 152 Q 392.5 126 406 152" fill="none" stroke="#ff0000" stroke-width="0.2"/>
<text x="262" y="200" font-family="sans-serif" font-size="4.5" fill="#ff0000">ORELLES x2 - encaixen a la tapa</text>
</svg>
